<svg xmlns="http://www.w3.org/2000/svg" width="32" height="32"><circle fill="#5FFFBA" cx="17" cy="28" r="1"/><path fill="#2D2220" d="M13 4h6v1h-6z"/><g fill="#2D2220"><path d="M13 4v1h6V4h-6zm0 0v1h6V4h-6zm0 0v1h6V4h-6zm0 0v1h6V4h-6zm-3 20v1h12v-1H10zm3-20v1h6V4h-6zm-3 20v1h12v-1H10zm3-20v1h6V4h-6zm-3 20v1h12v-1H10zM23 2H9c-.55 0-1 .45-1 1v5h1V7h14v21c0 .55-.45 1-1 1H10c-.55 0-1-.45-1-1V13H8v16c0 .55.45 1 1 1h14c.55 0 1-.45 1-1V3c0-.55-.45-1-1-1zm0 4H9V4c0-.55.45-1 1-1h12c.55 0 1 .45 1 1v2zm-1 18H10v1h12v-1zM13 5h6V4h-6v1zm-3 19v1h12v-1H10zm3-20v1h6V4h-6zm0 0v1h6V4h-6zm0 0v1h6V4h-6zm0 0v1h6V4h-6z"/><path d="M13 4h6v1h-6z"/></g><path fill="#2D2220" d="M13 4h6v1h-6z"/><path fill="#2D2220" d="M13 4h6v1h-6z"/><path fill="#5FFFBA" d="M14 5h6v1h-6zM15 7h1v17h-1zM13 7h1v17h-1zM17 7h6v17h-6z"/><circle fill="#2D2220" cx="16" cy="27" r="1"/><path fill="#2D2220" d="M10 9.5a.5.5 0 00-.5-.5h-2a.5.5 0 000 1h2a.5.5 0 00.5-.5zM10 11.5a.5.5 0 00-.5-.5h-2a.5.5 0 000 1h2a.5.5 0 00.5-.5z"/></svg>