<svg xmlns="http://www.w3.org/2000/svg" width="32" height="32"><path fill="#2D2220" d="M26 7v13H15.5c-.28 0-.5-.22-.5-.5s.22-.5.5-.5H25V8H7v11h1.5c.28 0 .5.22.5.5s-.22.5-.5.5H6V7h20z"/><path fill="#FFD561" d="M14 8h11v11H14zm-2 0h1v11h-1zm-2 0h1v11h-1zM1 28h30v1H1z"/><path fill="#2D2220" d="M23 5.5c0 .28-.22.5-.5.5h-8c-.28 0-.5-.22-.5-.5s.22-.5.5-.5h8c.28 0 .5.22.5.5z"/><path fill="#2D2220" d="M30.86 26.49l-3-5a.975.975 0 00-.23-.26c.22-.29.37-.68.37-1.23V7s0-2-2-2h-2 .5c-.28 0-.5.22-.5.5s.22.5.5.5H26c.81 0 .99.55 1 1v13c0 .81-.55.99-1 1H6c-.81 0-.99-.55-1-1V7c0-.81.55-.99 1-1h16.5c.279 0 .5-.22.5-.5s-.221-.5-.5-.5H6S4 5 4 7v13s0 .66.38 1.22c-.09.07-.18.16-.24.271l-3 5c-.18.3-.19.689-.01 1 .18.319.51.509.87.509h28c.36 0 .69-.19.87-.51.18-.31.17-.7-.01-1zM2 27l3-5h22l3 5H2z"/><path fill="#2D2220" d="M14 19.5a.5.5 0 00-.5-.5h-3a.5.5 0 000 1h3a.5.5 0 00.5-.5zm5 6a.5.5 0 00-.5-.5h-13a.5.5 0 000 1h13a.5.5 0 00.5-.5zm4 0a.5.5 0 00-.5-.5h-1a.5.5 0 000 1h1a.5.5 0 00.5-.5zm4 0a.5.5 0 00-.5-.5h-1a.5.5 0 000 1h1a.5.5 0 00.5-.5zm-2-2a.5.5 0 00-.5-.5h-9a.5.5 0 000 1h9a.5.5 0 00.5-.5zm-12 0a.5.5 0 00-.5-.5h-1a.5.5 0 000 1h1a.5.5 0 00.5-.5zm-4 0a.5.5 0 00-.5-.5h-1a.5.5 0 000 1h1a.5.5 0 00.5-.5z"/></svg>